<mxfile host="app.diagrams.net" agent="Mozilla/5.0 (Windows NT 10.0; Win64; x64; rv:135.0) Gecko/20100101 Firefox/135.0" version="26.0.15">
  <diagram name="Страница — 1" id="GSURWLQaLUcnLzjiFmMF">
    <mxGraphModel dx="774" dy="477" grid="1" gridSize="10" guides="1" tooltips="1" connect="1" arrows="1" fold="1" page="1" pageScale="1" pageWidth="827" pageHeight="1169" math="0" shadow="0">
      <root>
        <mxCell id="0" />
        <mxCell id="1" parent="0" />
        <mxCell id="5zK9ElxDiLUedw-noPBC-1" value="Пропускная способность дорожного участка" style="rounded=1;whiteSpace=wrap;html=1;" vertex="1" parent="1">
          <mxGeometry x="360" y="280" width="120" height="60" as="geometry" />
        </mxCell>
        <mxCell id="5zK9ElxDiLUedw-noPBC-11" style="edgeStyle=orthogonalEdgeStyle;rounded=0;orthogonalLoop=1;jettySize=auto;html=1;exitX=0.5;exitY=1;exitDx=0;exitDy=0;entryX=0.5;entryY=0;entryDx=0;entryDy=0;" edge="1" parent="1" source="5zK9ElxDiLUedw-noPBC-10" target="5zK9ElxDiLUedw-noPBC-1">
          <mxGeometry relative="1" as="geometry" />
        </mxCell>
        <mxCell id="5zK9ElxDiLUedw-noPBC-27" value="+" style="edgeLabel;html=1;align=center;verticalAlign=middle;resizable=0;points=[];" vertex="1" connectable="0" parent="5zK9ElxDiLUedw-noPBC-11">
          <mxGeometry x="-0.0667" y="7" relative="1" as="geometry">
            <mxPoint as="offset" />
          </mxGeometry>
        </mxCell>
        <mxCell id="5zK9ElxDiLUedw-noPBC-10" value="Дорожная инфраструктура" style="rounded=1;whiteSpace=wrap;html=1;" vertex="1" parent="1">
          <mxGeometry x="360" y="160" width="120" height="60" as="geometry" />
        </mxCell>
        <mxCell id="5zK9ElxDiLUedw-noPBC-12" value="Ширина дороги" style="rounded=1;whiteSpace=wrap;html=1;" vertex="1" parent="1">
          <mxGeometry x="360" y="40" width="120" height="60" as="geometry" />
        </mxCell>
        <mxCell id="5zK9ElxDiLUedw-noPBC-68" style="edgeStyle=orthogonalEdgeStyle;rounded=0;orthogonalLoop=1;jettySize=auto;html=1;exitX=0;exitY=0.5;exitDx=0;exitDy=0;entryX=1;entryY=0.5;entryDx=0;entryDy=0;" edge="1" parent="1" source="5zK9ElxDiLUedw-noPBC-13" target="5zK9ElxDiLUedw-noPBC-10">
          <mxGeometry relative="1" as="geometry" />
        </mxCell>
        <mxCell id="5zK9ElxDiLUedw-noPBC-72" value="+" style="edgeLabel;html=1;align=center;verticalAlign=middle;resizable=0;points=[];" vertex="1" connectable="0" parent="5zK9ElxDiLUedw-noPBC-68">
          <mxGeometry x="-0.1253" y="-5" relative="1" as="geometry">
            <mxPoint y="-5" as="offset" />
          </mxGeometry>
        </mxCell>
        <mxCell id="5zK9ElxDiLUedw-noPBC-69" style="edgeStyle=orthogonalEdgeStyle;rounded=0;orthogonalLoop=1;jettySize=auto;html=1;exitX=0.5;exitY=1;exitDx=0;exitDy=0;entryX=0.5;entryY=0;entryDx=0;entryDy=0;" edge="1" parent="1" source="5zK9ElxDiLUedw-noPBC-13" target="5zK9ElxDiLUedw-noPBC-22">
          <mxGeometry relative="1" as="geometry" />
        </mxCell>
        <mxCell id="5zK9ElxDiLUedw-noPBC-81" style="edgeStyle=orthogonalEdgeStyle;rounded=0;orthogonalLoop=1;jettySize=auto;html=1;exitX=1;exitY=0.25;exitDx=0;exitDy=0;entryX=0;entryY=0.25;entryDx=0;entryDy=0;" edge="1" parent="1" source="5zK9ElxDiLUedw-noPBC-13" target="5zK9ElxDiLUedw-noPBC-39">
          <mxGeometry relative="1" as="geometry" />
        </mxCell>
        <mxCell id="5zK9ElxDiLUedw-noPBC-13" value="Состояние дорожного покрытия" style="rounded=1;whiteSpace=wrap;html=1;" vertex="1" parent="1">
          <mxGeometry x="526.21" y="160" width="120" height="60" as="geometry" />
        </mxCell>
        <mxCell id="5zK9ElxDiLUedw-noPBC-75" style="edgeStyle=orthogonalEdgeStyle;rounded=0;orthogonalLoop=1;jettySize=auto;html=1;exitX=1;exitY=0.5;exitDx=0;exitDy=0;entryX=0;entryY=0.5;entryDx=0;entryDy=0;" edge="1" parent="1" source="5zK9ElxDiLUedw-noPBC-14" target="5zK9ElxDiLUedw-noPBC-1">
          <mxGeometry relative="1" as="geometry" />
        </mxCell>
        <mxCell id="5zK9ElxDiLUedw-noPBC-14" value="Наземные пешеходные переходы" style="rounded=1;whiteSpace=wrap;html=1;" vertex="1" parent="1">
          <mxGeometry x="140" y="280" width="120" height="60" as="geometry" />
        </mxCell>
        <mxCell id="5zK9ElxDiLUedw-noPBC-16" value="" style="endArrow=classic;html=1;rounded=0;entryX=0.5;entryY=0;entryDx=0;entryDy=0;exitX=0.5;exitY=1;exitDx=0;exitDy=0;" edge="1" parent="1" source="5zK9ElxDiLUedw-noPBC-12" target="5zK9ElxDiLUedw-noPBC-10">
          <mxGeometry width="50" height="50" relative="1" as="geometry">
            <mxPoint x="210" y="140" as="sourcePoint" />
            <mxPoint x="310" y="180" as="targetPoint" />
          </mxGeometry>
        </mxCell>
        <mxCell id="5zK9ElxDiLUedw-noPBC-19" value="+" style="edgeLabel;html=1;align=center;verticalAlign=middle;resizable=0;points=[];" vertex="1" connectable="0" parent="5zK9ElxDiLUedw-noPBC-16">
          <mxGeometry x="0.0483" y="-1" relative="1" as="geometry">
            <mxPoint x="-5" y="-2" as="offset" />
          </mxGeometry>
        </mxCell>
        <mxCell id="5zK9ElxDiLUedw-noPBC-65" style="edgeStyle=orthogonalEdgeStyle;rounded=0;orthogonalLoop=1;jettySize=auto;html=1;exitX=0;exitY=0.5;exitDx=0;exitDy=0;entryX=1;entryY=0.5;entryDx=0;entryDy=0;" edge="1" parent="1" source="5zK9ElxDiLUedw-noPBC-22" target="5zK9ElxDiLUedw-noPBC-1">
          <mxGeometry relative="1" as="geometry" />
        </mxCell>
        <mxCell id="5zK9ElxDiLUedw-noPBC-22" value="Дорожные происшествия" style="rounded=1;whiteSpace=wrap;html=1;" vertex="1" parent="1">
          <mxGeometry x="526.21" y="280" width="120" height="60" as="geometry" />
        </mxCell>
        <mxCell id="5zK9ElxDiLUedw-noPBC-33" style="edgeStyle=orthogonalEdgeStyle;rounded=0;orthogonalLoop=1;jettySize=auto;html=1;exitX=0.5;exitY=0;exitDx=0;exitDy=0;entryX=0.5;entryY=1;entryDx=0;entryDy=0;" edge="1" parent="1" source="5zK9ElxDiLUedw-noPBC-32" target="5zK9ElxDiLUedw-noPBC-1">
          <mxGeometry relative="1" as="geometry" />
        </mxCell>
        <mxCell id="5zK9ElxDiLUedw-noPBC-34" value="+" style="edgeLabel;html=1;align=center;verticalAlign=middle;resizable=0;points=[];" vertex="1" connectable="0" parent="5zK9ElxDiLUedw-noPBC-33">
          <mxGeometry x="-0.0333" y="-10" relative="1" as="geometry">
            <mxPoint as="offset" />
          </mxGeometry>
        </mxCell>
        <mxCell id="5zK9ElxDiLUedw-noPBC-32" value="Видимость" style="rounded=1;whiteSpace=wrap;html=1;" vertex="1" parent="1">
          <mxGeometry x="360" y="400" width="120" height="60" as="geometry" />
        </mxCell>
        <mxCell id="5zK9ElxDiLUedw-noPBC-80" style="edgeStyle=orthogonalEdgeStyle;rounded=0;orthogonalLoop=1;jettySize=auto;html=1;exitX=0;exitY=0.75;exitDx=0;exitDy=0;entryX=1;entryY=0.75;entryDx=0;entryDy=0;" edge="1" parent="1" source="5zK9ElxDiLUedw-noPBC-39" target="5zK9ElxDiLUedw-noPBC-13">
          <mxGeometry relative="1" as="geometry" />
        </mxCell>
        <mxCell id="5zK9ElxDiLUedw-noPBC-83" value="+" style="edgeLabel;html=1;align=center;verticalAlign=middle;resizable=0;points=[];" vertex="1" connectable="0" parent="5zK9ElxDiLUedw-noPBC-80">
          <mxGeometry x="-0.0614" y="7" relative="1" as="geometry">
            <mxPoint as="offset" />
          </mxGeometry>
        </mxCell>
        <mxCell id="5zK9ElxDiLUedw-noPBC-91" style="edgeStyle=orthogonalEdgeStyle;rounded=0;orthogonalLoop=1;jettySize=auto;html=1;exitX=0.25;exitY=0;exitDx=0;exitDy=0;entryX=0.25;entryY=1;entryDx=0;entryDy=0;" edge="1" parent="1" source="5zK9ElxDiLUedw-noPBC-39" target="5zK9ElxDiLUedw-noPBC-89">
          <mxGeometry relative="1" as="geometry" />
        </mxCell>
        <mxCell id="5zK9ElxDiLUedw-noPBC-93" value="+" style="edgeLabel;html=1;align=center;verticalAlign=middle;resizable=0;points=[];" vertex="1" connectable="0" parent="5zK9ElxDiLUedw-noPBC-91">
          <mxGeometry x="-0.0425" y="-6" relative="1" as="geometry">
            <mxPoint as="offset" />
          </mxGeometry>
        </mxCell>
        <mxCell id="5zK9ElxDiLUedw-noPBC-39" value="Дорожные работы" style="rounded=1;whiteSpace=wrap;html=1;" vertex="1" parent="1">
          <mxGeometry x="740" y="160" width="120" height="60" as="geometry" />
        </mxCell>
        <mxCell id="5zK9ElxDiLUedw-noPBC-45" style="edgeStyle=orthogonalEdgeStyle;rounded=0;orthogonalLoop=1;jettySize=auto;html=1;exitX=0;exitY=0.5;exitDx=0;exitDy=0;entryX=1;entryY=0.5;entryDx=0;entryDy=0;" edge="1" parent="1" source="5zK9ElxDiLUedw-noPBC-44" target="5zK9ElxDiLUedw-noPBC-32">
          <mxGeometry relative="1" as="geometry" />
        </mxCell>
        <mxCell id="5zK9ElxDiLUedw-noPBC-46" value="&lt;font style=&quot;font-size: 14px;&quot;&gt;-&lt;/font&gt;" style="edgeLabel;html=1;align=center;verticalAlign=middle;resizable=0;points=[];" vertex="1" connectable="0" parent="5zK9ElxDiLUedw-noPBC-45">
          <mxGeometry x="0.0222" y="-8" relative="1" as="geometry">
            <mxPoint y="-2" as="offset" />
          </mxGeometry>
        </mxCell>
        <mxCell id="5zK9ElxDiLUedw-noPBC-47" style="edgeStyle=orthogonalEdgeStyle;rounded=0;orthogonalLoop=1;jettySize=auto;html=1;exitX=0.5;exitY=0;exitDx=0;exitDy=0;entryX=0.5;entryY=1;entryDx=0;entryDy=0;" edge="1" parent="1" source="5zK9ElxDiLUedw-noPBC-44" target="5zK9ElxDiLUedw-noPBC-39">
          <mxGeometry relative="1" as="geometry" />
        </mxCell>
        <mxCell id="5zK9ElxDiLUedw-noPBC-44" value="Осадки" style="rounded=1;whiteSpace=wrap;html=1;" vertex="1" parent="1">
          <mxGeometry x="740" y="400" width="120" height="60" as="geometry" />
        </mxCell>
        <mxCell id="5zK9ElxDiLUedw-noPBC-53" value="+" style="edgeLabel;html=1;align=center;verticalAlign=middle;resizable=0;points=[];" vertex="1" connectable="0" parent="1">
          <mxGeometry x="810.0031034482759" y="319.9999999999999" as="geometry">
            <mxPoint x="-1" y="1" as="offset" />
          </mxGeometry>
        </mxCell>
        <mxCell id="5zK9ElxDiLUedw-noPBC-63" value="" style="endArrow=classic;html=1;rounded=0;exitX=1;exitY=0;exitDx=0;exitDy=0;entryX=0;entryY=1;entryDx=0;entryDy=0;" edge="1" parent="1" source="5zK9ElxDiLUedw-noPBC-32" target="5zK9ElxDiLUedw-noPBC-22">
          <mxGeometry width="50" height="50" relative="1" as="geometry">
            <mxPoint x="560" y="410" as="sourcePoint" />
            <mxPoint x="610" y="360" as="targetPoint" />
          </mxGeometry>
        </mxCell>
        <mxCell id="5zK9ElxDiLUedw-noPBC-66" value="&lt;font style=&quot;font-size: 14px;&quot;&gt;-&lt;/font&gt;" style="edgeLabel;html=1;align=center;verticalAlign=middle;resizable=0;points=[];" vertex="1" connectable="0" parent="1">
          <mxGeometry x="500.0037931034482" y="359.9999999999999" as="geometry" />
        </mxCell>
        <mxCell id="5zK9ElxDiLUedw-noPBC-67" value="&lt;font style=&quot;font-size: 14px;&quot;&gt;-&lt;/font&gt;" style="edgeLabel;html=1;align=center;verticalAlign=middle;resizable=0;points=[];" vertex="1" connectable="0" parent="1">
          <mxGeometry x="600.0037931034482" y="439.9999999999999" as="geometry">
            <mxPoint x="-93" y="-142" as="offset" />
          </mxGeometry>
        </mxCell>
        <mxCell id="5zK9ElxDiLUedw-noPBC-71" value="&lt;font style=&quot;font-size: 14px;&quot;&gt;-&lt;/font&gt;" style="edgeLabel;html=1;align=center;verticalAlign=middle;resizable=0;points=[];" vertex="1" connectable="0" parent="1">
          <mxGeometry x="610.0037931034482" y="449.9999999999999" as="geometry">
            <mxPoint x="-12" y="-201" as="offset" />
          </mxGeometry>
        </mxCell>
        <mxCell id="5zK9ElxDiLUedw-noPBC-77" value="&lt;font style=&quot;font-size: 14px;&quot;&gt;-&lt;/font&gt;" style="edgeLabel;html=1;align=center;verticalAlign=middle;resizable=0;points=[];" vertex="1" connectable="0" parent="1">
          <mxGeometry x="632.4137931034481" y="489.9999999999999" as="geometry">
            <mxPoint x="-324" y="-190" as="offset" />
          </mxGeometry>
        </mxCell>
        <mxCell id="5zK9ElxDiLUedw-noPBC-78" value="" style="endArrow=classic;html=1;rounded=0;entryX=0;entryY=1;entryDx=0;entryDy=0;exitX=1;exitY=0;exitDx=0;exitDy=0;" edge="1" parent="1" source="5zK9ElxDiLUedw-noPBC-14" target="5zK9ElxDiLUedw-noPBC-10">
          <mxGeometry width="50" height="50" relative="1" as="geometry">
            <mxPoint x="220" y="270" as="sourcePoint" />
            <mxPoint x="270" y="220" as="targetPoint" />
          </mxGeometry>
        </mxCell>
        <mxCell id="5zK9ElxDiLUedw-noPBC-79" value="+" style="edgeLabel;html=1;align=center;verticalAlign=middle;resizable=0;points=[];" vertex="1" connectable="0" parent="5zK9ElxDiLUedw-noPBC-78">
          <mxGeometry x="-0.0315" y="6" relative="1" as="geometry">
            <mxPoint y="-6" as="offset" />
          </mxGeometry>
        </mxCell>
        <mxCell id="5zK9ElxDiLUedw-noPBC-84" value="&lt;font style=&quot;font-size: 14px;&quot;&gt;-&lt;/font&gt;" style="edgeLabel;html=1;align=center;verticalAlign=middle;resizable=0;points=[];" vertex="1" connectable="0" parent="1">
          <mxGeometry x="690.0037931034482" y="149.9999999999999" as="geometry">
            <mxPoint y="9" as="offset" />
          </mxGeometry>
        </mxCell>
        <mxCell id="5zK9ElxDiLUedw-noPBC-85" value="" style="endArrow=classic;html=1;rounded=0;entryX=1;entryY=1;entryDx=0;entryDy=0;exitX=0;exitY=0;exitDx=0;exitDy=0;" edge="1" parent="1" source="5zK9ElxDiLUedw-noPBC-44" target="5zK9ElxDiLUedw-noPBC-13">
          <mxGeometry width="50" height="50" relative="1" as="geometry">
            <mxPoint x="680" y="320" as="sourcePoint" />
            <mxPoint x="730" y="270" as="targetPoint" />
          </mxGeometry>
        </mxCell>
        <mxCell id="5zK9ElxDiLUedw-noPBC-88" value="&lt;font style=&quot;font-size: 14px;&quot;&gt;-&lt;/font&gt;" style="edgeLabel;html=1;align=center;verticalAlign=middle;resizable=0;points=[];" vertex="1" connectable="0" parent="1">
          <mxGeometry x="616.8965517241377" y="429.9999999999999" as="geometry">
            <mxPoint x="91" y="-123" as="offset" />
          </mxGeometry>
        </mxCell>
        <mxCell id="5zK9ElxDiLUedw-noPBC-90" style="edgeStyle=orthogonalEdgeStyle;rounded=0;orthogonalLoop=1;jettySize=auto;html=1;exitX=0.75;exitY=1;exitDx=0;exitDy=0;entryX=0.75;entryY=0;entryDx=0;entryDy=0;" edge="1" parent="1" source="5zK9ElxDiLUedw-noPBC-89" target="5zK9ElxDiLUedw-noPBC-39">
          <mxGeometry relative="1" as="geometry" />
        </mxCell>
        <mxCell id="5zK9ElxDiLUedw-noPBC-94" value="+" style="edgeLabel;html=1;align=center;verticalAlign=middle;resizable=0;points=[];" vertex="1" connectable="0" parent="5zK9ElxDiLUedw-noPBC-90">
          <mxGeometry x="-0.0494" y="7" relative="1" as="geometry">
            <mxPoint as="offset" />
          </mxGeometry>
        </mxCell>
        <mxCell id="5zK9ElxDiLUedw-noPBC-89" value="Финансирование" style="rounded=1;whiteSpace=wrap;html=1;" vertex="1" parent="1">
          <mxGeometry x="740" y="40" width="120" height="60" as="geometry" />
        </mxCell>
      </root>
    </mxGraphModel>
  </diagram>
</mxfile>
